<svg width="1403" height="210" viewBox="0 0 1403 210" fill="none" xmlns="http://www.w3.org/2000/svg">
<path fill-rule="evenodd" clip-rule="evenodd" d="M1403 7.27177e-06L1356.23 9.10405C1309.47 17.6012 1215.93 35.2023 1122.4 35.2023C1028.87 35.2023 935.333 17.6012 841.8 35.2023C748.267 52.8035 654.733 105 561.2 131.098C467.667 157.803 374.133 157.803 280.6 162.052C187.067 166.301 93.5333 174.798 46.7666 179.653L-2.09808e-05 183.902V210H46.7666C93.5333 210 187.067 210 280.6 210C374.133 210 467.667 210 561.2 210C654.733 210 748.267 210 841.8 210C935.333 210 1028.87 210 1122.4 210C1215.93 210 1309.47 210 1356.23 210H1403V7.27177e-06Z" fill="url(#paint0_linear_2_2)"/>
<defs>
<linearGradient id="paint0_linear_2_2" x1="701.5" y1="210" x2="701.5" y2="0" gradientUnits="userSpaceOnUse">
<stop stop-color="#C01BF7"/>
<stop offset="1" stop-color="#3AAAF4"/>
</linearGradient>
</defs>
</svg>
